<svg width="70" height="70" viewBox="0 0 70 70" fill="none" xmlns="http://www.w3.org/2000/svg">
<circle cx="35" cy="35" r="29" fill="#7ACBCD"/>
<path d="M34.9996 5.83331C18.8996 5.83331 5.83289 18.9 5.83289 35C5.83289 51.1 18.8996 64.1667 34.9996 64.1667C51.0996 64.1667 64.1662 51.1 64.1662 35C64.1662 18.9 51.0996 5.83331 34.9996 5.83331ZM34.9996 14.5833C39.8412 14.5833 43.7496 18.4916 43.7496 23.3333C43.7496 28.175 39.8412 32.0833 34.9996 32.0833C30.1579 32.0833 26.2496 28.175 26.2496 23.3333C26.2496 18.4916 30.1579 14.5833 34.9996 14.5833ZM34.9996 56C27.7079 56 21.2621 52.2667 17.4996 46.6083C17.5871 40.8041 29.1662 37.625 34.9996 37.625C40.8037 37.625 52.4121 40.8041 52.4996 46.6083C48.7371 52.2667 42.2912 56 34.9996 56Z" fill="#363636"/>
</svg>
