<svg width="36" height="36" viewBox="0 0 36 36" fill="none" xmlns="http://www.w3.org/2000/svg">
<path d="M17.9998 2.99999C9.71976 2.99999 2.99976 9.71999 2.99976 18C2.99976 26.28 9.71976 33 17.9998 33C26.2798 33 32.9998 26.28 32.9998 18C32.9998 9.71999 26.2798 2.99999 17.9998 2.99999ZM17.9998 7.49999C20.4898 7.49999 22.4998 9.50999 22.4998 12C22.4998 14.49 20.4898 16.5 17.9998 16.5C15.5098 16.5 13.4998 14.49 13.4998 12C13.4998 9.50999 15.5098 7.49999 17.9998 7.49999ZM17.9998 28.8C14.2498 28.8 10.9348 26.88 8.99976 23.97C9.04476 20.985 14.9998 19.35 17.9998 19.35C20.9848 19.35 26.9548 20.985 26.9998 23.97C25.0648 26.88 21.7498 28.8 17.9998 28.8Z" fill="white"/>
</svg>
