<svg width="70" height="70" viewBox="0 0 70 70" fill="none" xmlns="http://www.w3.org/2000/svg">
<g clip-path="url(#clip0)">
<path d="M23.3333 29.1671H14.5833V20.4171H8.75V29.1671H0V35.0004H8.75V43.7504H14.5833V35.0004H23.3333V29.1671ZM52.5 32.0837C57.3417 32.0837 61.2208 28.1754 61.2208 23.3337C61.2208 18.4921 57.3417 14.5837 52.5 14.5837C51.5667 14.5837 50.6625 14.7296 49.8458 14.9921C51.5083 17.3546 52.4708 20.2129 52.4708 23.3337C52.4708 26.4546 51.4792 29.2837 49.8458 31.6754C50.6625 31.9379 51.5667 32.0837 52.5 32.0837ZM37.9167 32.0837C42.7583 32.0837 46.6375 28.1754 46.6375 23.3337C46.6375 18.4921 42.7583 14.5837 37.9167 14.5837C33.075 14.5837 29.1667 18.4921 29.1667 23.3337C29.1667 28.1754 33.075 32.0837 37.9167 32.0837ZM57.225 38.3837C59.6458 40.5129 61.25 43.2254 61.25 46.6671V52.5004H70V46.6671C70 42.1754 63.0875 39.4046 57.225 38.3837ZM37.9167 37.9171C32.0833 37.9171 20.4167 40.8337 20.4167 46.6671V52.5004H55.4167V46.6671C55.4167 40.8337 43.75 37.9171 37.9167 37.9171Z" fill="#404040"/>
<path d="M35.3288 34.9996C41.7746 34.9996 46.9955 29.7788 46.9955 23.3329C46.9955 16.8871 41.7746 11.6663 35.3288 11.6663C28.883 11.6663 23.6621 16.8871 23.6621 23.3329C23.6621 29.7788 28.883 34.9996 35.3288 34.9996ZM35.3288 40.8329C27.5413 40.8329 11.9955 44.7413 11.9955 52.4996V58.3329H58.6621V52.4996C58.6621 44.7413 43.1163 40.8329 35.3288 40.8329Z" fill="#404040"/>
</g>
<defs>
<clipPath id="clip0">
<rect width="70" height="70" fill="white"/>
</clipPath>
</defs>
</svg>
