<svg width="70" height="70" viewBox="0 0 70 70" fill="none" xmlns="http://www.w3.org/2000/svg">
<path d="M45.2096 40.6484H42.9054L42.0887 39.8645C44.9471 36.5545 46.6679 32.2574 46.6679 27.5828C46.6679 17.1594 38.1804 8.71035 27.7096 8.71035C17.2387 8.71035 8.75122 17.1594 8.75122 27.5828C8.75122 38.0063 17.2387 46.4553 27.7096 46.4553C32.4054 46.4553 36.7221 44.7423 40.0471 41.8969L40.8346 42.7099V45.0036L55.4179 59.4919L59.7637 55.1657L45.2096 40.6484ZM27.7096 40.6484C20.4471 40.6484 14.5846 34.8124 14.5846 27.5828C14.5846 20.3532 20.4471 14.5173 27.7096 14.5173C34.9721 14.5173 40.8346 20.3532 40.8346 27.5828C40.8346 34.8124 34.9721 40.6484 27.7096 40.6484Z" fill="#404040"/>
</svg>
